<?xml version="1.0" encoding="UTF-8" standalone="no"?>
<svg
   xmlns:dc="http://purl.org/dc/elements/1.1/"
   xmlns:cc="http://creativecommons.org/ns#"
   xmlns:rdf="http://www.w3.org/1999/02/22-rdf-syntax-ns#"
   xmlns:svg="http://www.w3.org/2000/svg"
   xmlns="http://www.w3.org/2000/svg"
   xmlns:sodipodi="http://sodipodi.sourceforge.net/DTD/sodipodi-0.dtd"
   xmlns:inkscape="http://www.inkscape.org/namespaces/inkscape"
   width="373mm"
   height="210mm"
   viewBox="0 0 373 210"
   version="1.1"
   id="svg8"
   sodipodi:docname="background_title.svg"
   inkscape:version="1.0.1 (3bc2e813f5, 2020-09-07, custom)">
  <sodipodi:namedview
     pagecolor="#ffffff"
     bordercolor="#666666"
     borderopacity="1"
     objecttolerance="10"
     gridtolerance="10"
     guidetolerance="10"
     inkscape:pageopacity="0"
     inkscape:pageshadow="2"
     inkscape:window-width="3840"
     inkscape:window-height="2103"
     id="namedview1902"
     showgrid="false"
     inkscape:zoom="0.92497766"
     inkscape:cx="704.88189"
     inkscape:cy="396.85039"
     inkscape:window-x="0"
     inkscape:window-y="30"
     inkscape:window-maximized="0"
     inkscape:current-layer="text821-0" />
  <defs
     id="defs2" />
  <metadata
     id="metadata5">
    <rdf:RDF>
      <cc:Work
         rdf:about="">
        <dc:format>image/svg+xml</dc:format>
        <dc:type
           rdf:resource="http://purl.org/dc/dcmitype/StillImage" />
        <dc:title />
      </cc:Work>
    </rdf:RDF>
  </metadata>
  <g
     id="layer1"
     transform="translate(0,-87)">
    <rect
       style="opacity:1;fill:#f1f1f1;fill-opacity:1;stroke:none;stroke-width:2.83751941;stroke-linejoin:miter;stroke-miterlimit:4;stroke-dasharray:none;stroke-dashoffset:0;stroke-opacity:1"
       id="rect815"
       width="373"
       height="210"
       x="0"
       y="87" />
    <g
       aria-label="TYPETYPE"
       id="text821-0"
       style="font-style:normal;font-variant:normal;font-weight:bold;font-stretch:normal;font-size:25.4px;line-height:150%;font-family:'Noto Sans Mono';-inkscape-font-specification:'Noto Sans Mono Bold';letter-spacing:0px;word-spacing:0px;fill:#b3bec3;fill-opacity:1;stroke:none;stroke-width:0.264583">
      <path
         d="m 258.07502,164.65009 h 34.13125 v 7.21816 h -12.27832 v 29.81524 h -9.54981 v -29.81524 h -12.30312 z"
         style="font-style:normal;font-variant:normal;font-weight:900;font-stretch:normal;font-size:50.8px;font-family:Overpass;-inkscape-font-specification:'Overpass Heavy';text-align:end;text-anchor:end;fill:#b3bec3;fill-opacity:1;stroke-width:0.264583"
         id="path2465" />
      <path
         d="m 291.98303,164.65009 h 10.44277 l 8.43359,13.19609 8.4336,-13.19609 h 10.46757 l -14.11386,21.43125 v 15.60215 h -9.54981 v -15.60215 z"
         style="font-style:normal;font-variant:normal;font-weight:900;font-stretch:normal;font-size:50.8px;font-family:Overpass;-inkscape-font-specification:'Overpass Heavy';text-align:end;text-anchor:end;fill:#b3bec3;fill-opacity:1;stroke-width:0.264583"
         id="path2467" />
      <path
         d="m 333.92775,164.65009 h 15.8502 q 7.06933,0 10.83964,3.15019 3.79512,3.12539 3.79512,8.92969 0,5.8291 -3.79512,8.9793 -3.77031,3.12539 -10.83964,3.12539 h -6.30039 v 12.84883 h -9.54981 z m 9.54981,6.92051 v 10.34355 h 5.28339 q 2.77813,0 4.29121,-1.33945 1.51309,-1.36426 1.51309,-3.84473 0,-2.48047 -1.51309,-3.81992 -1.51308,-1.33945 -4.29121,-1.33945 z"
         style="font-style:normal;font-variant:normal;font-weight:900;font-stretch:normal;font-size:50.8px;font-family:Overpass;-inkscape-font-specification:'Overpass Heavy';text-align:end;text-anchor:end;fill:#b3bec3;fill-opacity:1;stroke-width:0.264583"
         id="path2469" />
      <path
         d="m 371.15959,164.65009 h 25.77207 v 7.21816 h -16.22227 v 6.89571 h 15.25488 v 7.21816 h -15.25488 v 8.4832 h 16.76797 v 7.21817 h -26.31777 z"
         style="font-style:normal;font-variant:normal;font-weight:900;font-stretch:normal;font-size:50.8px;font-family:Overpass;-inkscape-font-specification:'Overpass Heavy';text-align:end;text-anchor:end;fill:#b3bec3;fill-opacity:1;stroke-width:0.264583"
         id="path2471" />
      <path
         d="m 401.44611,164.65009 h 34.13125 v 7.21816 h -12.27832 v 29.81524 h -9.5498 v -29.81524 h -12.30313 z"
         style="font-style:normal;font-variant:normal;font-weight:900;font-stretch:normal;font-size:50.8px;font-family:Overpass;-inkscape-font-specification:'Overpass Heavy';text-align:end;text-anchor:end;fill:#b3bec3;fill-opacity:1;stroke-width:0.264583"
         id="path2473" />
      <path
         d="m 435.35412,164.65009 h 10.44277 l 8.43359,13.19609 8.4336,-13.19609 h 10.46757 l -14.11386,21.43125 v 15.60215 h -9.54981 v -15.60215 z"
         style="font-style:normal;font-variant:normal;font-weight:900;font-stretch:normal;font-size:50.8px;font-family:Overpass;-inkscape-font-specification:'Overpass Heavy';text-align:end;text-anchor:end;fill:#b3bec3;fill-opacity:1;stroke-width:0.264583"
         id="path2475" />
      <path
         d="m 477.29884,164.65009 h 15.8502 q 7.06934,0 10.83965,3.15019 3.79512,3.12539 3.79512,8.92969 0,5.8291 -3.79512,8.9793 -3.77031,3.12539 -10.83965,3.12539 h -6.30039 v 12.84883 h -9.54981 z m 9.54981,6.92051 v 10.34355 h 5.2834 q 2.77812,0 4.29121,-1.33945 1.51308,-1.36426 1.51308,-3.84473 0,-2.48047 -1.51308,-3.81992 -1.51309,-1.33945 -4.29121,-1.33945 z"
         style="font-style:normal;font-variant:normal;font-weight:900;font-stretch:normal;font-size:50.8px;font-family:Overpass;-inkscape-font-specification:'Overpass Heavy';text-align:end;text-anchor:end;fill:#b3bec3;fill-opacity:1;stroke-width:0.264583"
         id="path2477" />
      <path
         d="m 514.53067,164.65009 h 25.77207 v 7.21816 h -16.22226 v 6.89571 h 15.25488 v 7.21816 h -15.25488 v 8.4832 h 16.76796 v 7.21817 h -26.31777 z"
         style="font-style:normal;font-variant:normal;font-weight:900;font-stretch:normal;font-size:50.8px;font-family:Overpass;-inkscape-font-specification:'Overpass Heavy';text-align:end;text-anchor:end;fill:#b3bec3;fill-opacity:1;stroke-width:0.264583"
         id="path2479" />
    </g>
    <g
       aria-label="TYPETYPE"
       id="text821-3-4"
       style="font-style:normal;font-variant:normal;font-weight:bold;font-stretch:normal;font-size:25.4px;line-height:150%;font-family:'Noto Sans Mono';-inkscape-font-specification:'Noto Sans Mono Bold';letter-spacing:0px;word-spacing:0px;fill:#b3bec3;fill-opacity:1;stroke:none;stroke-width:0.264583">
      <path
         d="m 216.39991,209.59598 h 34.13125 v 7.21817 h -12.27832 v 29.81523 h -9.54981 v -29.81523 h -12.30312 z"
         style="font-style:normal;font-variant:normal;font-weight:900;font-stretch:normal;font-size:50.8px;font-family:Overpass;-inkscape-font-specification:'Overpass Heavy';text-align:end;text-anchor:end;fill:#b3bec3;fill-opacity:1;stroke-width:0.264583"
         id="path2482" />
      <path
         d="m 250.30792,209.59598 h 10.44277 l 8.43359,13.19609 8.4336,-13.19609 h 10.46757 l -14.11386,21.43125 v 15.60215 h -9.54981 v -15.60215 z"
         style="font-style:normal;font-variant:normal;font-weight:900;font-stretch:normal;font-size:50.8px;font-family:Overpass;-inkscape-font-specification:'Overpass Heavy';text-align:end;text-anchor:end;fill:#b3bec3;fill-opacity:1;stroke-width:0.264583"
         id="path2484" />
      <path
         d="m 292.25264,209.59598 h 15.8502 q 7.06933,0 10.83964,3.1502 3.79512,3.12539 3.79512,8.92968 0,5.82911 -3.79512,8.9793 -3.77031,3.12539 -10.83964,3.12539 h -6.30039 v 12.84883 h -9.54981 z m 9.54981,6.92051 v 10.34355 h 5.28339 q 2.77813,0 4.29121,-1.33945 1.51309,-1.36426 1.51309,-3.84473 0,-2.48046 -1.51309,-3.81992 -1.51308,-1.33945 -4.29121,-1.33945 z"
         style="font-style:normal;font-variant:normal;font-weight:900;font-stretch:normal;font-size:50.8px;font-family:Overpass;-inkscape-font-specification:'Overpass Heavy';text-align:end;text-anchor:end;fill:#b3bec3;fill-opacity:1;stroke-width:0.264583"
         id="path2486" />
      <path
         d="m 329.48448,209.59598 h 25.77207 v 7.21817 h -16.22227 v 6.8957 h 15.25488 v 7.21816 h -15.25488 v 8.48321 h 16.76797 v 7.21816 h -26.31777 z"
         style="font-style:normal;font-variant:normal;font-weight:900;font-stretch:normal;font-size:50.8px;font-family:Overpass;-inkscape-font-specification:'Overpass Heavy';text-align:end;text-anchor:end;fill:#b3bec3;fill-opacity:1;stroke-width:0.264583"
         id="path2488" />
      <path
         d="m 359.771,209.59598 h 34.13125 v 7.21817 h -12.27832 v 29.81523 h -9.5498 V 216.81415 H 359.771 Z"
         style="font-style:normal;font-variant:normal;font-weight:900;font-stretch:normal;font-size:50.8px;font-family:Overpass;-inkscape-font-specification:'Overpass Heavy';text-align:end;text-anchor:end;fill:#b3bec3;fill-opacity:1;stroke-width:0.264583"
         id="path2490" />
      <path
         d="m 393.67901,209.59598 h 10.44277 l 8.43359,13.19609 8.4336,-13.19609 h 10.46757 l -14.11386,21.43125 v 15.60215 h -9.54981 v -15.60215 z"
         style="font-style:normal;font-variant:normal;font-weight:900;font-stretch:normal;font-size:50.8px;font-family:Overpass;-inkscape-font-specification:'Overpass Heavy';text-align:end;text-anchor:end;fill:#b3bec3;fill-opacity:1;stroke-width:0.264583"
         id="path2492" />
      <path
         d="m 435.62373,209.59598 h 15.8502 q 7.06934,0 10.83965,3.1502 3.79512,3.12539 3.79512,8.92968 0,5.82911 -3.79512,8.9793 -3.77031,3.12539 -10.83965,3.12539 h -6.30039 v 12.84883 h -9.54981 z m 9.54981,6.92051 v 10.34355 h 5.2834 q 2.77812,0 4.29121,-1.33945 1.51308,-1.36426 1.51308,-3.84473 0,-2.48046 -1.51308,-3.81992 -1.51309,-1.33945 -4.29121,-1.33945 z"
         style="font-style:normal;font-variant:normal;font-weight:900;font-stretch:normal;font-size:50.8px;font-family:Overpass;-inkscape-font-specification:'Overpass Heavy';text-align:end;text-anchor:end;fill:#b3bec3;fill-opacity:1;stroke-width:0.264583"
         id="path2494" />
      <path
         d="m 472.85556,209.59598 h 25.77207 v 7.21817 h -16.22226 v 6.8957 h 15.25488 v 7.21816 h -15.25488 v 8.48321 h 16.76796 v 7.21816 h -26.31777 z"
         style="font-style:normal;font-variant:normal;font-weight:900;font-stretch:normal;font-size:50.8px;font-family:Overpass;-inkscape-font-specification:'Overpass Heavy';text-align:end;text-anchor:end;fill:#b3bec3;fill-opacity:1;stroke-width:0.264583"
         id="path2496" />
    </g>
    <g
       aria-label="TYPETYPETYPE"
       id="text821-39"
       style="font-style:normal;font-variant:normal;font-weight:bold;font-stretch:normal;font-size:25.4px;line-height:150%;font-family:'Noto Sans Mono';-inkscape-font-specification:'Noto Sans Mono Bold';letter-spacing:0px;word-spacing:0px;fill:#b3bec3;fill-opacity:1;stroke:none;stroke-width:0.264583">
      <path
         d="m 114.70392,254.54189 h 34.13125 v 7.21816 h -12.27832 v 29.81524 h -9.5498 v -29.81524 h -12.30313 z"
         style="font-style:normal;font-variant:normal;font-weight:900;font-stretch:normal;font-size:50.8px;font-family:Overpass;-inkscape-font-specification:'Overpass Heavy';text-align:end;text-anchor:end;fill:#b3bec3;fill-opacity:1;stroke-width:0.264583"
         id="path2499" />
      <path
         d="m 148.61193,254.54189 h 10.44278 l 8.43359,13.19609 8.43359,-13.19609 h 10.46758 l -14.11386,21.43125 v 15.60215 h -9.54981 v -15.60215 z"
         style="font-style:normal;font-variant:normal;font-weight:900;font-stretch:normal;font-size:50.8px;font-family:Overpass;-inkscape-font-specification:'Overpass Heavy';text-align:end;text-anchor:end;fill:#b3bec3;fill-opacity:1;stroke-width:0.264583"
         id="path2501" />
      <path
         d="m 190.55666,254.54189 h 15.85019 q 7.06934,0 10.83965,3.15019 3.79512,3.12539 3.79512,8.92969 0,5.8291 -3.79512,8.9793 -3.77031,3.12539 -10.83965,3.12539 h -6.30039 v 12.84883 h -9.5498 z m 9.5498,6.92051 v 10.34355 h 5.2834 q 2.77813,0 4.29121,-1.33945 1.51309,-1.36426 1.51309,-3.84473 0,-2.48047 -1.51309,-3.81992 -1.51308,-1.33945 -4.29121,-1.33945 z"
         style="font-style:normal;font-variant:normal;font-weight:900;font-stretch:normal;font-size:50.8px;font-family:Overpass;-inkscape-font-specification:'Overpass Heavy';text-align:end;text-anchor:end;fill:#b3bec3;fill-opacity:1;stroke-width:0.264583"
         id="path2503" />
      <path
         d="m 227.78849,254.54189 h 25.77207 v 7.21816 H 237.3383 v 6.89571 h 15.25488 v 7.21816 H 237.3383 v 8.4832 h 16.76797 v 7.21817 h -26.31778 z"
         style="font-style:normal;font-variant:normal;font-weight:900;font-stretch:normal;font-size:50.8px;font-family:Overpass;-inkscape-font-specification:'Overpass Heavy';text-align:end;text-anchor:end;fill:#b3bec3;fill-opacity:1;stroke-width:0.264583"
         id="path2505" />
      <path
         d="m 258.07502,254.54189 h 34.13125 v 7.21816 h -12.27832 v 29.81524 h -9.54981 v -29.81524 h -12.30312 z"
         style="font-style:normal;font-variant:normal;font-weight:900;font-stretch:normal;font-size:50.8px;font-family:Overpass;-inkscape-font-specification:'Overpass Heavy';text-align:end;text-anchor:end;fill:#b3bec3;fill-opacity:1;stroke-width:0.264583"
         id="path2507" />
      <path
         d="m 291.98302,254.54189 h 10.44278 l 8.43359,13.19609 8.43359,-13.19609 h 10.46758 l -14.11387,21.43125 v 15.60215 h -9.5498 v -15.60215 z"
         style="font-style:normal;font-variant:normal;font-weight:900;font-stretch:normal;font-size:50.8px;font-family:Overpass;-inkscape-font-specification:'Overpass Heavy';text-align:end;text-anchor:end;fill:#b3bec3;fill-opacity:1;stroke-width:0.264583"
         id="path2509" />
      <path
         d="m 333.92775,254.54189 h 15.8502 q 7.06933,0 10.83965,3.15019 3.79511,3.12539 3.79511,8.92969 0,5.8291 -3.79511,8.9793 -3.77032,3.12539 -10.83965,3.12539 h -6.30039 v 12.84883 h -9.54981 z m 9.54981,6.92051 v 10.34355 h 5.2834 q 2.77812,0 4.29121,-1.33945 1.51308,-1.36426 1.51308,-3.84473 0,-2.48047 -1.51308,-3.81992 -1.51309,-1.33945 -4.29121,-1.33945 z"
         style="font-style:normal;font-variant:normal;font-weight:900;font-stretch:normal;font-size:50.8px;font-family:Overpass;-inkscape-font-specification:'Overpass Heavy';text-align:end;text-anchor:end;fill:#b3bec3;fill-opacity:1;stroke-width:0.264583"
         id="path2511" />
      <path
         d="m 371.15958,254.54189 h 25.77207 v 7.21816 h -16.22227 v 6.89571 h 15.25489 v 7.21816 h -15.25489 v 8.4832 h 16.76797 v 7.21817 h -26.31777 z"
         style="font-style:normal;font-variant:normal;font-weight:900;font-stretch:normal;font-size:50.8px;font-family:Overpass;-inkscape-font-specification:'Overpass Heavy';text-align:end;text-anchor:end;fill:#b3bec3;fill-opacity:1;stroke-width:0.264583"
         id="path2513" />
      <path
         d="m 401.44611,254.54189 h 34.13125 v 7.21816 h -12.27832 v 29.81524 h -9.5498 v -29.81524 h -12.30313 z"
         style="font-style:normal;font-variant:normal;font-weight:900;font-stretch:normal;font-size:50.8px;font-family:Overpass;-inkscape-font-specification:'Overpass Heavy';text-align:end;text-anchor:end;fill:#b3bec3;fill-opacity:1;stroke-width:0.264583"
         id="path2515" />
      <path
         d="m 435.3541,254.54189 h 10.44278 l 8.43359,13.19609 8.43359,-13.19609 h 10.46758 l -14.11387,21.43125 v 15.60215 h -9.5498 v -15.60215 z"
         style="font-style:normal;font-variant:normal;font-weight:900;font-stretch:normal;font-size:50.8px;font-family:Overpass;-inkscape-font-specification:'Overpass Heavy';text-align:end;text-anchor:end;fill:#b3bec3;fill-opacity:1;stroke-width:0.264583"
         id="path2517" />
      <path
         d="m 477.29885,254.54189 h 15.85019 q 7.06934,0 10.83965,3.15019 3.79512,3.12539 3.79512,8.92969 0,5.8291 -3.79512,8.9793 -3.77031,3.12539 -10.83965,3.12539 h -6.30039 v 12.84883 h -9.5498 z m 9.5498,6.92051 v 10.34355 h 5.2834 q 2.77812,0 4.29121,-1.33945 1.51309,-1.36426 1.51309,-3.84473 0,-2.48047 -1.51309,-3.81992 -1.51309,-1.33945 -4.29121,-1.33945 z"
         style="font-style:normal;font-variant:normal;font-weight:900;font-stretch:normal;font-size:50.8px;font-family:Overpass;-inkscape-font-specification:'Overpass Heavy';text-align:end;text-anchor:end;fill:#b3bec3;fill-opacity:1;stroke-width:0.264583"
         id="path2519" />
      <path
         d="m 514.53066,254.54189 h 25.77207 v 7.21816 h -16.22227 v 6.89571 h 15.25489 v 7.21816 h -15.25489 v 8.4832 h 16.76797 v 7.21817 h -26.31777 z"
         style="font-style:normal;font-variant:normal;font-weight:900;font-stretch:normal;font-size:50.8px;font-family:Overpass;-inkscape-font-specification:'Overpass Heavy';text-align:end;text-anchor:end;fill:#b3bec3;fill-opacity:1;stroke-width:0.264583"
         id="path2521" />
    </g>
  </g>
</svg>
